<svg width="431" height="157" viewBox="0 0 431 157" fill="none" xmlns="http://www.w3.org/2000/svg">
<g clip-path="url(#clip0_10_41)">
<path d="M14.7477 29.3471C14.7477 43.0489 12.362 56.6522 12.362 70.3464C12.362 79.2578 11.6248 87.6431 10.5947 96.5011C9.57506 105.27 6 114.376 6 123.186C6 128.089 6.0847 120.402 6.53016 119.033C11.7203 103.078 18.8944 87.2122 25.8811 71.9811C31.2348 60.3101 35.55 47.462 41.7418 36.2392C45.5281 29.3765 43.6662 36.3275 42.4929 40.3038C36.5757 60.3566 29.5986 80.0339 24.0256 100.212C21.3424 109.927 19.1075 119.767 16.3382 129.46C15.8241 131.259 16.109 125.675 16.5149 123.849C18.8737 113.234 22.4543 102.999 26.4996 92.9225C33.5359 75.3959 41.7396 58.4114 49.2525 41.099C49.8932 39.6226 52.2044 35.5275 51.9917 37.1228C51.339 42.0175 48.0773 47.3877 46.0715 51.7907C39.6298 65.931 35.4056 81.0406 28.6203 94.999C28.4069 95.4381 26.4173 100.524 27.0298 98.5334C29.4627 90.6266 33.2132 83.4083 37.0146 76.0898C43.4431 63.7134 49.5918 50.5902 57.5142 39.0667C63.7726 29.9636 60.2267 42.2107 58.7513 46.7541C52.4693 66.0986 44.4308 85.4166 36.5728 104.188C34.9011 108.182 33.7248 112.497 31.6246 116.294C29.8425 119.515 31.4651 115.731 31.978 114.527C39.4276 97.0363 48.8669 80.4496 58.1327 63.8961C60.9638 58.8383 63.6471 53.7827 66.8804 48.9631C67.8512 47.5161 69.4161 44.5359 71.2101 43.8382C72.7425 43.2423 70.8971 52.3247 70.8566 52.4976C66.7612 69.9962 59.2747 86.6828 52.9195 103.437C49.1487 113.379 46.8549 125.598 41.4326 134.894C31.572 151.798 57.5078 99.1689 66.8362 81.9658C74.6337 67.586 81.8992 52.5785 90.6052 38.7133C90.7584 38.4693 94.147 33.2223 94.6256 33.6326C98.1628 36.6644 87.9081 59.1709 87.115 61.422C78.3765 86.2263 69.2158 110.898 60.0767 135.556C58.6978 139.277 57.4827 143.156 55.6586 146.69C53.8031 150.285 57.6337 138.828 59.0163 135.026C67.2581 112.361 78.8449 90.5434 89.324 68.8443C93.5874 60.0159 97.6113 50.2013 103.727 42.557C105.131 40.8022 103.387 47.0719 102.755 49.2282C99.5274 60.2306 93.8588 70.7967 89.5007 81.3915C82.8388 97.5869 75.6747 113.571 68.9127 129.725C68.8129 129.963 66.6779 135.592 67.764 132.729C73.7053 117.066 82.3701 102.285 89.8983 87.3558C99.7357 67.8478 109.261 48.1843 119.543 28.9053C119.894 28.2473 123.721 22.018 121.885 26.6079C118.363 35.4131 114.071 43.9182 109.779 52.365C102.684 66.3314 95.7964 80.3753 88.7938 94.3805C87.5667 96.8347 86.0062 99.5305 87.7335 94.513C90.9917 85.0488 96.1094 76.2342 100.546 67.2979C104.102 60.1355 107.8 53.078 111.768 46.1356C114.592 41.193 116.44 39.3689 114.595 46.3123C109.297 66.2484 99.1955 85.1902 91.0912 104.1C88.5101 110.123 81.3682 128.438 83.6689 122.302C89.9738 105.489 101.143 89.7481 109.647 73.9692C112.664 68.371 116.371 63.2509 119.632 57.7992C120.476 56.387 122.944 52.7228 123.166 54.3531C124.09 61.1276 117.592 71.2227 115.169 77.106C109.635 90.5462 104.041 103.964 98.8228 117.531C95.4591 126.276 92.1927 135.065 88.4404 143.641C86.5661 147.926 92.4451 135.187 94.6256 131.05C101.588 117.842 108.887 104.756 116.186 91.7296C121.077 82.9993 125.821 74.1807 130.853 65.5307C132.966 61.9003 135.003 57.8023 138.011 54.7949C140.304 52.5017 138.42 57.8367 138.276 58.241C134.406 69.0761 129.403 79.5786 124.668 90.0508C119.275 101.978 113.561 113.815 108.587 125.925C106.794 130.291 105.315 134.77 103.02 138.914C92.1008 158.629 120.865 97.5178 130.323 77.0618C140.686 54.6502 150.284 30.9047 163.282 9.81941C163.47 9.51395 166.364 4.33294 166.286 6.55007C165.978 15.3426 160.943 24.5204 157.715 32.4397C147.866 56.6016 138.112 80.8797 128.556 105.16C127.721 107.281 125.253 113.592 125.64 111.346C126.904 104.017 131.778 96.4635 135.006 89.8741C141.22 77.1929 147.052 64.5046 153.871 52.1441C153.96 51.9827 156.212 47.9458 156.611 48.7422C158.609 52.739 152.662 64.5347 151.486 67.9607C142.541 94.0103 134.311 120.911 122.989 146.071C116.187 161.188 135.939 115.541 143.047 100.566C148.044 90.0396 153.463 79.6955 158.952 69.4186C162.159 63.4148 165.136 56.4945 169.29 51.0838C171.377 48.3667 170.595 51.5383 170.262 53.2928C167.587 67.398 159.764 81.1368 154.534 94.3805C148.496 109.671 143.064 125.151 137.215 140.505C137.102 140.802 136.846 141.713 136.995 141.432C138.266 139.031 139.239 136.472 140.485 134.054C149.05 117.427 159.423 101.695 168.407 85.2793C181.047 62.1832 192.319 38.2131 206.358 15.9163C207.415 14.2375 210.259 7.82909 212.631 7.43367C213.692 7.25685 206.094 29.6673 205.96 30.0098C192.015 65.5779 176.101 100.573 160.322 135.38C159.102 138.071 157.319 145.54 154.843 147.397C153.623 148.312 155.458 144.39 156.036 142.979C157.945 138.316 160.123 133.752 162.266 129.195C171.603 109.332 180.577 88.645 191.513 69.5953C191.885 68.9465 195.729 62.0969 194.65 66.4143C192.514 74.957 187.284 82.7798 183.384 90.581C176.726 103.897 171.003 117.64 164.342 130.962C164.053 131.54 161.396 136.572 162.884 133.038C167.451 122.193 173.09 111.892 178.657 101.538C192.987 74.8828 206.795 47.9798 223.544 22.72C223.676 22.5212 227.52 17.3073 227.52 18.9205C227.52 26.5574 223.059 35.2977 220.363 42.1594C210.386 67.5482 200.298 92.9094 190.85 118.503C189.239 122.868 188.152 127.406 186.521 131.757C186.252 132.473 185.183 135.291 186.079 132.817C190.649 120.195 197.769 108.288 203.751 96.3244C211.363 81.0999 219.267 66.0289 226.901 50.8187C230.33 43.9867 238.335 23.0431 237.858 30.6725C237.454 37.1308 233.013 44.9676 230.524 50.7303C225.428 62.533 219.727 74.0582 214.708 85.8978C210.884 94.9177 197.468 120.992 202.779 112.759C219.48 86.8723 233.337 59.1812 250.052 33.235C251.814 30.4997 263.779 6.48868 268.254 7.8313C269.907 8.32703 260.7 27.2622 260.257 28.1984C251.141 47.4743 241.858 66.6824 233.087 86.1187C226.297 101.164 205.651 146.146 213.25 131.492C222.007 114.603 232.643 98.3526 243.381 82.6727C247.712 76.3473 252.594 70.378 256.811 63.9844C258.763 61.026 260.419 57.656 263.173 55.3251C263.389 55.1424 265.07 54.0562 265.206 54.5298C265.519 55.6261 264.041 58.7014 263.836 59.213C261.563 64.8954 259.021 70.4743 256.591 76.0898C251.001 89.0033 244.902 101.647 239.051 114.438C236.46 120.102 234.561 126.017 231.629 131.536C231.45 131.872 230.786 132.799 230.966 132.464C232.398 129.795 234.129 127.246 235.737 124.688C245.509 109.15 255.302 93.6674 264.631 77.857C270.916 67.2056 277.59 56.8189 284.247 46.4007C287.368 41.518 290.401 36.1078 294.674 32.0863C299.274 27.7565 293.57 40.0995 293.349 40.5689C286.61 54.8792 279.658 69.1013 272.76 83.3354C264.236 100.926 256.496 118.869 247.754 136.352C245.086 141.688 246.177 137.712 247.666 134.231C253.262 121.148 260.163 108.495 266.487 95.75C274.713 79.1713 283.658 62.9225 293.039 46.975C293.186 46.7259 296.431 42.374 296.485 43.3522C296.649 46.3051 294.032 51.3645 293.083 53.6462C289.789 61.5675 286.144 69.3508 282.48 77.106C273.344 96.4465 264.916 116.455 254.956 135.38C253.703 137.76 250.58 144.956 250.759 142.272C250.892 140.273 252.678 137.658 253.498 135.998C257.796 127.295 262.232 118.696 266.929 110.197C281.767 83.3474 296.961 55.709 315.969 31.4677C316.06 31.3509 320.3 26.7215 320.74 27.4915C322.58 30.7104 315.783 42.2597 314.643 44.7218C301.009 74.1725 286.849 103.486 275.588 133.966C275.159 135.127 269.445 148.712 273.202 142.184C280.126 130.154 287.435 118.346 294.497 106.397C304.368 89.6964 315.645 73.4217 324.893 56.3854C325.42 55.415 327.239 53.929 326.749 56.2971C325.069 64.4173 319.233 72.899 315.792 80.3311C307.864 97.4545 299.163 114.192 291.051 131.227C288.321 136.96 285.902 142.933 282.745 148.457C280.482 152.418 281.261 150.771 283.275 147.574C291.835 133.985 298.591 119.397 306.47 105.426C315.011 90.28 323.626 73.7999 333.994 59.6989C342.083 48.6986 332.781 70.578 331.785 72.7763C323.72 90.5757 315.171 108.255 306.647 125.837C306.013 127.144 303.525 131.43 305.321 127.03C311.62 111.599 320.783 97.0166 328.781 82.4518C335.986 69.3311 342.243 54.8048 350.96 42.6012C350.999 42.5463 354.006 39.0198 354.141 39.2435C355.976 42.303 349.239 54.8074 348.044 57.4457C336.288 83.3904 324.475 109.161 313.76 135.556C310.054 144.685 316.899 130.446 317.736 128.929C326.591 112.888 335.416 96.8241 344.333 80.8171C349.986 70.6676 356.033 60.7378 361.784 50.642C364.595 45.7065 367.56 40.6461 371.283 36.3276C379.287 27.0422 370.116 50.3019 369.471 52.0116C361.694 72.6133 352.231 92.5238 344.421 113.113C342.426 118.372 347.252 109.13 347.469 108.783C354.755 97.1539 361.782 85.3671 368.941 73.6599C377.875 59.0505 386.762 44.3301 396.686 30.3632C397.844 28.7336 398.876 26.729 400.795 25.8568C404.456 24.1926 400.379 34.0135 398.984 37.7855C387.01 70.1577 340.758 162.889 357.056 132.464C366.567 114.711 375.938 96.607 386.039 79.1824C389.394 73.3949 392.702 67.4921 396.465 61.9521C397.043 61.1022 398.851 58.2906 398.851 60.8918C398.851 68.468 395.736 75.7726 393.108 82.7169C387.595 97.2833 381.827 111.761 375.966 126.19C373.444 132.397 371.393 138.816 368.632 144.923C367.043 148.436 363.146 156.278 367.836 147.088C383.086 117.211 397.425 86.656 414.314 57.6666C414.66 57.0736 426.77 35.909 424.608 45.5171C420.926 61.8839 413.13 77.3652 407.996 93.3201C404.092 105.456 399.318 117.389 395.67 129.548" stroke="black" stroke-width="3" stroke-linecap="round"/>
</g>
<defs>
<clipPath id="clip0_10_41">
<rect width="431" height="157" fill="white"/>
</clipPath>
</defs>
</svg>
